<?xml version="1.0" standalone="no"?>
<!DOCTYPE svg PUBLIC "-//W3C//DTD SVG 20010904//EN"
 "http://www.w3.org/TR/2001/REC-SVG-20010904/DTD/svg10.dtd">
<svg version="1.0" xmlns="http://www.w3.org/2000/svg"
 width="680.000000pt" height="751.000000pt" viewBox="0 0 680.000000 751.000000"
 preserveAspectRatio="xMidYMid meet">

<g transform="translate(0.000000,751.000000) scale(0.100000,-0.100000)"
fill="#000000" stroke="none">
<path d="M0 7249 c0 -171 3 -258 10 -254 5 3 10 13 10 21 0 8 4 14 9 14 5 0
12 18 16 40 4 22 10 40 14 40 11 0 49 83 56 124 4 20 11 36 16 36 5 0 9 18 9
40 0 22 5 40 10 40 6 0 10 8 10 19 0 10 18 35 39 54 37 33 39 38 28 61 -12 25
-14 26 -119 26 l-108 0 0 -261z"/>
<path d="M440 7486 c-16 -43 -32 -158 -38 -281 -4 -66 -10 -125 -14 -131 -4
-6 -10 -96 -12 -200 -8 -275 -17 -410 -33 -489 -8 -38 -16 -119 -18 -180 -3
-92 -12 -191 -40 -445 -2 -14 -8 -77 -15 -140 -7 -63 -14 -118 -16 -122 -2 -3
-9 -122 -15 -265 -18 -449 -26 -544 -47 -596 -7 -16 -12 -79 -12 -146 0 -76
-4 -121 -12 -129 -8 -8 -12 -68 -12 -187 -1 -119 -5 -178 -12 -183 -11 -7 -14
-37 -32 -344 -5 -81 -14 -153 -19 -160 -13 -16 -35 -196 -32 -258 4 -76 -23
-353 -36 -375 -18 -28 -28 -168 -13 -183 17 -17 19 -142 2 -149 -9 -3 -14 -22
-14 -54 0 -39 3 -47 15 -43 10 4 15 0 15 -12 0 -34 19 6 26 56 4 25 12 51 18
59 6 8 9 39 8 73 -2 32 0 64 6 71 5 7 12 50 16 97 16 191 18 215 26 236 5 12
6 39 4 60 -5 39 6 157 26 269 6 33 15 116 20 185 13 181 27 290 40 305 6 7 13
80 16 171 7 213 11 282 27 392 11 80 17 96 41 118 23 22 26 31 19 53 -12 41
-11 163 2 191 17 35 33 184 41 380 3 91 11 174 17 185 7 13 10 67 8 146 -2
106 0 137 19 200 12 40 23 83 25 94 1 11 8 37 16 58 12 34 12 40 -1 50 -12 10
-15 33 -12 117 3 130 7 146 32 153 17 4 19 13 19 78 -1 104 3 123 26 127 11 2
25 8 31 13 14 12 26 51 13 43 -5 -3 -9 2 -9 10 0 9 -8 16 -19 16 -21 0 -35 53
-20 82 5 9 4 40 -2 75 -12 61 -6 212 12 338 6 39 14 113 18 165 4 53 14 109
23 126 10 22 12 36 5 52 -8 17 -6 27 8 42 10 11 25 20 34 20 19 1 72 29 55 30
-16 0 -24 37 -15 63 5 13 4 29 -3 39 -8 13 -8 23 2 38 12 20 10 20 -93 20
-103 0 -106 -1 -115 -24z"/>
<path d="M690 7470 c0 -49 24 -55 34 -9 9 46 8 49 -14 49 -17 0 -20 -7 -20
-40z"/>
<path d="M2060 7500 c0 -5 7 -10 15 -10 8 0 15 5 15 10 0 6 -7 10 -15 10 -8 0
-15 -4 -15 -10z"/>
<path d="M2492 7490 c-17 -28 -16 -30 24 -30 25 0 48 -9 74 -30 44 -35 89 -39
114 -11 14 15 15 24 6 40 -6 12 -17 21 -26 21 -8 0 -17 7 -20 15 -5 12 -24 15
-83 15 -65 0 -78 -3 -89 -20z"/>
<path d="M2840 7495 c0 -8 5 -15 10 -15 6 0 10 7 10 15 0 8 -4 15 -10 15 -5 0
-10 -7 -10 -15z"/>
<path d="M3303 7498 c5 -15 55 -14 71 2 7 7 -3 10 -33 10 -30 0 -41 -4 -38
-12z"/>
<path d="M4246 7488 c-3 -13 -6 -63 -6 -112 l0 -88 -27 5 c-31 6 -90 22 -170
45 -46 13 -56 13 -90 0 -58 -23 -127 -30 -173 -18 -22 6 -81 11 -130 12 -71 0
-96 -3 -117 -18 -22 -14 -55 -18 -163 -22 -89 -3 -140 -9 -150 -17 -8 -7 -26
-16 -39 -20 -12 -4 -39 -18 -59 -31 -19 -14 -47 -27 -61 -31 -13 -3 -36 -12
-50 -19 -14 -8 -32 -14 -38 -14 -7 0 -29 -15 -48 -33 -22 -21 -54 -38 -88 -46
-51 -13 -91 -37 -82 -51 7 -12 -89 -95 -138 -117 -48 -22 -137 -105 -137 -127
0 -6 -12 -19 -27 -28 -81 -49 -246 -208 -242 -234 4 -24 -9 -61 -30 -94 -9
-14 -27 -57 -41 -97 -22 -66 -23 -78 -14 -160 8 -69 17 -97 39 -131 23 -34 27
-49 22 -83 -3 -22 -1 -54 5 -70 7 -19 7 -34 0 -42 -12 -15 -22 -124 -22 -232
1 -88 32 -279 60 -365 10 -30 23 -73 29 -95 8 -28 22 -48 47 -65 20 -14 52
-41 70 -60 24 -25 36 -32 44 -24 7 7 15 79 20 166 5 86 12 168 16 184 14 56
82 190 123 244 40 53 57 92 80 175 6 22 29 62 51 89 22 26 40 57 40 67 0 11 7
22 15 25 8 3 17 14 20 25 4 11 10 17 15 14 4 -3 6 4 3 14 -3 13 2 21 15 25 11
4 27 18 36 31 9 14 23 25 30 25 8 0 26 21 41 46 16 27 40 52 58 60 18 8 46 23
62 34 17 10 37 19 45 20 8 0 33 9 55 20 22 11 45 19 52 20 7 0 33 11 57 25 46
25 92 26 107 2 4 -6 16 -3 30 7 30 21 105 22 113 1 3 -8 14 -15 24 -15 10 0
23 -5 28 -10 6 -6 35 -13 65 -16 30 -3 77 -11 104 -19 48 -13 67 -16 203 -31
57 -6 63 -9 68 -33 3 -14 7 -31 9 -37 2 -6 -3 -24 -11 -39 -17 -32 -18 -55 -3
-55 6 0 9 -10 7 -22 -2 -16 -11 -24 -28 -26 -76 -8 -87 -20 -45 -48 19 -12 28
-14 39 -5 18 15 40 -11 33 -39 -3 -10 -2 -19 2 -18 22 2 31 -5 31 -27 0 -26
29 -38 120 -50 80 -10 170 -76 103 -75 -40 0 -115 -10 -138 -19 -11 -4 -60
-27 -110 -52 -101 -50 -126 -79 -109 -126 8 -25 14 -28 44 -25 19 2 69 20 110
40 65 32 83 37 145 36 58 0 82 -6 136 -32 36 -18 73 -32 82 -32 47 0 88 -46
57 -65 -5 -3 -10 -17 -10 -30 0 -31 -27 -39 -59 -18 -34 22 -192 28 -236 8
-29 -13 -27 -13 43 -14 68 -1 132 -20 132 -39 0 -4 -36 -8 -80 -9 -43 -1 -109
-9 -145 -18 -37 -10 -68 -15 -71 -13 -6 7 48 59 71 69 18 7 17 8 -7 8 -55 2
-147 -70 -174 -136 -14 -32 -14 -37 2 -54 23 -25 64 -25 64 -1 0 23 35 56 49
47 6 -3 11 -25 11 -47 l0 -41 143 6 c79 3 151 9 160 13 12 4 17 1 17 -10 0 -9
-6 -16 -12 -17 -7 0 -3 -5 10 -11 35 -17 23 -41 -26 -51 -23 -4 -40 -12 -37
-17 6 -9 77 -1 85 10 3 4 24 12 48 17 48 12 111 1 125 -23 21 -37 60 -75 67
-64 5 8 9 7 13 -4 5 -11 1 -16 -13 -16 -21 0 -27 -15 -10 -25 6 -3 10 -17 10
-30 0 -13 4 -25 9 -27 5 -1 10 -19 12 -38 5 -54 -12 -210 -22 -204 -5 3 -9
-21 -9 -53 0 -50 -5 -65 -36 -108 -21 -31 -33 -57 -30 -69 3 -11 -4 -37 -15
-60 -22 -47 -24 -135 -2 -143 7 -3 13 -14 13 -24 0 -30 32 -22 58 14 l24 32
-6 -35 c-9 -60 -31 -144 -43 -166 -7 -12 -10 -24 -7 -26 2 -3 -2 -11 -11 -18
-8 -7 -15 -23 -15 -36 0 -13 -4 -24 -8 -24 -4 0 -13 -12 -20 -27 -17 -39 -36
-70 -55 -91 -10 -10 -17 -25 -17 -33 0 -8 -6 -23 -14 -34 -7 -11 -16 -30 -20
-42 -10 -32 -63 -86 -71 -73 -9 14 -35 -7 -35 -27 0 -13 3 -13 15 -3 12 10 16
9 20 -2 6 -16 -19 -83 -35 -93 -5 -3 -10 -15 -10 -25 0 -22 -13 -41 -88 -119
-28 -31 -54 -63 -57 -72 -3 -9 -15 -21 -28 -26 -12 -6 -45 -30 -72 -54 -28
-24 -64 -54 -81 -66 -61 -42 -186 -95 -252 -105 -83 -13 -223 -4 -264 17 -39
19 -67 19 -74 1 -5 -14 30 -89 38 -81 2 3 5 -34 6 -81 0 -47 2 -88 4 -90 2 -2
48 -10 103 -19 54 -9 107 -20 117 -26 12 -6 18 -6 18 0 0 6 -17 19 -37 30 -21
11 -30 20 -21 21 9 0 20 9 23 20 3 11 13 20 21 20 8 0 14 7 14 15 0 11 11 15
40 15 28 0 40 -4 40 -14 0 -8 9 -17 19 -21 11 -3 22 -12 25 -20 3 -9 18 -15
37 -15 27 0 30 -2 19 -15 -11 -13 -8 -15 14 -15 16 0 26 5 26 15 0 17 16 21
22 5 5 -14 48 0 48 17 0 8 14 19 30 25 17 5 35 19 41 29 6 12 20 19 38 19 24
0 31 6 45 40 9 22 22 40 29 40 8 0 20 18 27 40 11 32 18 40 34 38 13 -2 22
-12 24 -26 2 -12 8 -22 13 -22 5 0 9 -9 9 -19 0 -15 -6 -19 -20 -16 -11 2 -18
0 -15 -6 4 -5 12 -9 20 -9 7 0 25 -13 38 -30 17 -19 31 -28 41 -24 12 4 15 2
11 -9 -9 -21 27 -32 41 -13 6 9 25 16 41 16 19 0 37 9 51 25 12 14 32 25 45
25 35 0 65 27 78 70 10 32 17 40 36 40 18 0 23 5 23 25 0 19 5 25 23 25 26 1
60 24 49 35 -4 4 4 2 17 -5 13 -6 27 -8 31 -3 20 20 59 105 54 118 -6 16 -36
25 -86 25 -44 0 -128 21 -128 31 0 15 18 16 140 8 155 -10 149 -9 155 -28 6
-21 83 -71 109 -71 35 0 348 -126 386 -156 8 -6 44 -23 80 -37 36 -14 93 -39
127 -56 85 -42 127 -59 207 -87 38 -13 74 -28 80 -32 6 -5 23 -12 38 -16 75
-18 308 -144 308 -167 0 -5 7 -9 15 -9 8 0 15 -4 15 -8 0 -5 29 -31 64 -59 67
-55 56 -36 212 -345 24 -47 44 -91 44 -96 0 -6 9 -32 21 -59 28 -64 64 -198
100 -368 40 -195 80 -369 85 -374 2 -2 4 1371 4 3052 l0 3057 -921 0 -921 0 4
-32 c2 -26 -2 -34 -27 -49 -37 -22 -54 -23 -74 -4 -9 8 -27 24 -41 37 l-25 23
23 3 c15 2 29 -4 38 -16 17 -24 44 -19 75 14 22 24 22 24 2 24 -12 0 -23 -7
-27 -15 -7 -20 -26 -19 -26 0 0 23 -98 18 -110 -6 -17 -30 4 -167 26 -176 8
-3 14 -9 14 -14 0 -5 -7 -5 -17 0 -10 5 -26 12 -35 15 -16 5 -18 19 -18 101
l0 95 -185 0 -185 0 0 -72 c0 -87 -15 -147 -38 -155 -9 -4 -22 -13 -28 -22
-30 -40 -34 60 -9 207 7 40 6 42 -18 42 -17 0 -26 -7 -31 -22z m720 -182 c-6
-33 -36 -60 -36 -31 0 16 33 76 39 70 2 -2 0 -20 -3 -39z m429 -1394 c23 -20
53 -43 68 -51 15 -8 35 -22 44 -30 10 -9 33 -23 51 -30 19 -8 32 -20 32 -32 0
-23 -16 -33 -23 -15 -3 7 -27 24 -54 37 -26 12 -53 28 -59 33 -37 35 -63 53
-96 68 -35 16 -47 35 -31 51 13 13 29 6 68 -31z m-36 -144 c20 -12 41 -27 48
-33 7 -5 48 -37 93 -70 l80 -60 0 -171 c0 -94 -3 -173 -6 -177 -8 -7 -54 13
-54 25 0 4 -6 8 -12 8 -7 0 -42 21 -78 46 -36 25 -83 56 -104 70 l-39 26 7 97
c3 53 6 133 6 179 0 54 4 82 11 82 7 0 28 -10 48 -22z m331 -98 c10 0 20 -6
23 -14 7 -17 -24 -31 -33 -16 -14 23 -20 -22 -20 -146 0 -76 -4 -124 -10 -124
-12 0 -14 322 -3 334 4 4 12 -2 17 -13 5 -12 17 -21 26 -21z m160 -136 c0 -35
-16 -30 -45 16 -14 22 -36 47 -50 56 -14 9 -25 23 -25 31 0 9 22 -3 60 -32 44
-34 60 -53 60 -71z m-107 -174 c4 -15 0 -20 -14 -20 -12 0 -19 7 -19 18 0 37
23 38 33 2z m-392 -27 c25 -16 36 -29 29 -33 -16 -10 -90 27 -90 45 0 22 15
19 61 -12z m-751 -73 c21 -44 28 -77 19 -91 -6 -11 -13 -9 -32 9 -13 12 -26
20 -29 17 -7 -7 -25 44 -27 75 0 14 4 37 10 53 l11 27 19 -32 c9 -18 23 -44
29 -58z m1180 50 c0 -5 -4 -10 -10 -10 -5 0 -10 5 -10 10 0 6 5 10 10 10 6 0
10 -4 10 -10z m-1449 -16 c10 -13 10 -17 -2 -25 -22 -14 -44 -6 -47 19 -4 27
28 31 49 6z m1387 -27 c12 -12 46 -33 75 -47 45 -22 52 -29 52 -55 0 -46 -36
-47 -57 -1 -18 36 -51 54 -71 38 -17 -14 -66 -3 -76 17 -5 9 -9 31 -9 49 -1
32 0 33 31 27 18 -4 42 -17 55 -28z m119 1 c-3 -8 -6 -5 -6 6 -1 11 2 17 5 13
3 -3 4 -12 1 -19z m-1660 6 c-3 -3 -12 -4 -19 -1 -8 3 -5 6 6 6 11 1 17 -2 13
-5z m1369 -69 c16 -12 16 -14 3 -15 -9 0 -22 7 -29 15 -16 19 0 19 26 0z
m-601 -150 c30 -89 30 -159 0 -244 -9 -24 -27 -86 -40 -138 -13 -53 -31 -103
-39 -112 -9 -10 -16 -36 -16 -60 0 -31 -7 -52 -25 -75 -47 -58 -69 -76 -97
-76 -27 0 -28 2 -28 49 0 41 3 50 21 54 12 3 30 1 40 -6 10 -6 21 -8 25 -4 10
10 -23 55 -46 62 -23 7 -26 38 -9 82 l11 28 13 -32 c10 -23 19 -31 29 -27 20
8 20 13 2 50 -11 22 -12 41 -6 76 7 38 5 59 -10 105 -28 85 -27 153 5 183 22
20 25 32 25 86 0 71 15 91 39 53 9 -13 25 -33 37 -44 12 -11 25 -38 29 -60 6
-28 10 -34 12 -19 2 12 -3 49 -12 83 -15 58 -12 93 5 74 5 -4 20 -44 35 -88z
m-5 -1665 c0 -11 -4 -20 -10 -20 -5 0 -10 2 -10 4 0 2 -3 11 -6 20 -4 11 -1
16 10 16 9 0 16 -8 16 -20z m-675 -270 c3 -5 -1 -10 -9 -10 -9 0 -16 5 -16 10
0 6 4 10 9 10 6 0 13 -4 16 -10z"/>
<path d="M5375 5711 c-3 -6 -2 -19 3 -28 5 -10 13 -45 17 -78 8 -71 11 -76 31
-68 10 4 14 13 10 28 -7 27 14 48 38 39 20 -8 21 9 1 26 -8 7 -15 20 -15 29 0
9 -15 25 -33 36 -45 27 -44 27 -52 16z"/>
<path d="M5399 5469 c-22 -22 -21 -37 4 -53 21 -14 29 -4 33 39 3 40 -7 44
-37 14z"/>
<path d="M5492 5449 c1 -12 8 -24 15 -26 7 -3 9 3 6 17 -8 29 -25 37 -21 9z"/>
<path d="M4911 4934 c0 -11 3 -14 6 -6 3 7 2 16 -1 19 -3 4 -6 -2 -5 -13z"/>
<path d="M4834 4756 c-3 -19 -2 -42 4 -52 9 -15 11 -15 26 8 11 17 15 35 10
52 -9 37 -32 32 -40 -8z"/>
<path d="M2120 7442 c0 -26 11 -34 27 -21 20 17 16 39 -7 39 -13 0 -20 -7 -20
-18z"/>
<path d="M1500 7100 c0 -5 5 -10 10 -10 6 0 10 5 10 10 0 6 -4 10 -10 10 -5 0
-10 -4 -10 -10z"/>
<path d="M1970 7106 c0 -3 5 -17 11 -33 10 -26 12 -27 19 -8 14 33 11 45 -10
45 -11 0 -20 -2 -20 -4z"/>
<path d="M172 6939 c1 -13 8 -23 13 -21 15 3 12 35 -3 40 -9 3 -13 -3 -10 -19z"/>
<path d="M3330 6280 c0 -5 15 -10 33 -9 27 0 29 2 12 9 -28 12 -45 12 -45 0z"/>
<path d="M3148 5735 c-2 -2 -52 -6 -112 -9 l-110 -5 -60 -58 c-33 -32 -73 -70
-88 -85 -16 -16 -28 -39 -28 -53 0 -32 13 -32 34 0 9 14 23 25 31 25 7 0 51
18 97 39 138 65 273 73 361 21 33 -20 44 -21 95 -14 48 8 58 13 60 31 4 28
-60 73 -105 73 -18 0 -64 9 -102 19 -38 11 -71 18 -73 16z"/>
<path d="M3240 5392 c0 -12 19 -26 26 -19 2 2 -2 10 -11 17 -9 8 -15 8 -15 2z"/>
<path d="M3280 5374 c0 -4 8 -13 18 -20 15 -12 13 -13 -20 -14 -21 0 -38 -4
-38 -10 0 -6 -31 -10 -72 -10 -40 0 -92 -5 -115 -10 -49 -11 -213 -88 -213
-100 0 -17 29 -28 120 -43 116 -20 265 -28 278 -15 6 6 5 26 -4 56 -18 58 -7
69 40 42 37 -22 45 -47 24 -68 -20 -20 0 -26 26 -8 14 9 32 16 39 16 24 0 49
36 42 59 -3 12 -11 21 -16 21 -5 0 -9 8 -9 18 0 11 -11 24 -25 30 -14 6 -25
16 -25 21 0 5 -7 17 -16 25 -16 16 -34 21 -34 10z m-157 -121 c-7 -2 -21 -2
-30 0 -10 3 -4 5 12 5 17 0 24 -2 18 -5z m-103 -22 c0 -23 -14 -41 -30 -41
-25 0 -35 18 -20 35 14 16 50 20 50 6z"/>
<path d="M3790 5365 c0 -8 5 -15 10 -15 6 0 10 7 10 15 0 8 -4 15 -10 15 -5 0
-10 -7 -10 -15z"/>
<path d="M3837 5317 c-3 -8 -1 -20 4 -28 8 -12 10 -12 19 1 5 8 10 21 10 28 0
16 -27 16 -33 -1z"/>
<path d="M3776 5283 c-2 -10 -7 -44 -11 -75 -6 -55 -5 -58 19 -64 44 -11 59
11 29 42 -13 13 -17 31 -16 66 2 47 -11 66 -21 31z"/>
<path d="M3837 5219 c-7 -25 2 -51 14 -43 12 7 12 51 0 58 -5 3 -11 -4 -14
-15z"/>
<path d="M3886 5141 c-4 -6 -9 -19 -11 -28 -2 -10 -8 -33 -14 -51 -9 -31 -8
-34 23 -53 25 -15 33 -25 29 -39 -3 -11 0 -20 6 -20 6 0 11 -11 11 -25 0 -18
7 -28 24 -35 33 -12 106 -79 106 -96 0 -8 9 -23 20 -34 19 -19 19 -21 2 -52
-29 -51 -47 -57 -79 -27 -22 21 -42 28 -92 33 l-65 6 -43 -47 c-41 -46 -45
-48 -97 -47 -38 0 -52 -4 -49 -12 12 -33 115 -47 171 -23 30 12 33 12 48 -9 8
-12 22 -22 30 -22 10 0 12 -5 7 -12 -4 -7 5 -5 20 5 22 15 34 16 64 8 53 -15
103 16 109 66 8 74 53 47 92 -54 41 -108 44 -121 34 -127 -9 -5 -27 7 -85 59
-15 14 -32 23 -37 20 -12 -8 -13 -55 -1 -55 5 0 11 -13 14 -29 3 -16 13 -36
22 -44 8 -9 15 -20 15 -26 0 -11 -23 -10 -157 4 -31 3 -45 0 -51 -11 -9 -16
-164 -53 -227 -54 -29 -1 -29 -1 -10 -16 14 -11 33 -14 66 -11 25 3 63 1 85
-5 21 -6 54 -11 72 -13 18 -1 44 -8 57 -15 21 -11 27 -11 43 4 23 20 36 8 47
-41 8 -40 24 -52 32 -24 8 30 23 26 23 -6 0 -34 -58 -89 -103 -96 -17 -3 -63
-10 -102 -17 -38 -6 -149 -11 -245 -10 -96 0 -179 1 -185 0 -5 0 -43 -4 -83
-8 -53 -5 -76 -4 -84 5 -5 7 -25 17 -44 23 -33 11 -35 15 -32 48 2 27 9 40 26
47 12 5 22 13 22 17 0 5 11 8 24 8 16 0 34 12 50 32 24 31 27 32 58 21 41 -15
166 3 195 28 10 9 23 14 30 12 6 -2 14 1 19 8 5 9 -19 10 -102 5 -60 -3 -126
-6 -148 -6 -44 1 -145 -30 -230 -71 -63 -31 -85 -35 -87 -19 -3 19 -5 25 -18
48 -15 28 -6 76 21 115 35 50 128 241 128 265 0 25 -18 30 -26 7 -4 -8 -12
-15 -20 -15 -8 0 -14 -8 -14 -19 0 -10 -7 -24 -15 -31 -8 -7 -15 -19 -15 -26
0 -8 -9 -22 -20 -31 -11 -10 -20 -22 -20 -28 0 -5 -20 -36 -44 -68 -24 -33
-49 -79 -56 -103 -14 -50 -9 -145 11 -187 11 -25 13 -26 30 -11 10 9 16 20 14
25 -14 22 17 15 51 -11 22 -17 54 -40 72 -51 17 -12 32 -25 32 -31 0 -20 94
-128 111 -128 20 0 43 35 34 50 -3 6 -15 10 -27 10 -17 0 -18 2 -8 15 9 11 16
12 25 5 7 -6 25 -8 40 -4 20 5 32 1 51 -17 13 -12 24 -27 24 -33 0 -6 37 -21
83 -33 105 -27 287 -32 307 -8 7 8 27 15 46 15 18 0 45 5 60 12 23 11 28 10
43 -8 16 -20 17 -19 49 25 18 25 47 67 63 94 17 28 36 47 47 47 21 0 52 32 72
75 8 17 16 32 17 34 1 2 10 -2 19 -10 15 -12 21 -8 56 31 35 41 38 49 33 85
-9 59 -37 155 -45 155 -3 0 -17 23 -30 50 -13 28 -26 50 -30 50 -4 0 -12 11
-18 25 -7 14 -16 31 -22 38 -36 43 -70 91 -70 100 0 15 -82 114 -105 127 -37
20 -83 120 -55 120 36 0 -35 89 -89 111 -19 8 -21 12 -11 25 9 10 10 18 3 25
-8 8 -13 7 -17 0z"/>
<path d="M4110 5112 c0 -5 7 -13 16 -16 26 -10 164 -7 164 4 0 6 -26 10 -59
10 -32 0 -73 3 -90 6 -18 4 -31 2 -31 -4z"/>
<path d="M3245 5080 c-22 -11 -60 -22 -85 -25 -79 -11 -92 -24 -24 -24 49 -1
68 4 98 24 20 14 41 25 46 25 6 0 10 5 10 10 0 6 -1 10 -2 9 -2 0 -21 -9 -43
-19z"/>
<path d="M2186 5048 c-17 -24 -22 -68 -8 -68 12 0 61 77 54 84 -12 12 -31 5
-46 -16z"/>
<path d="M2380 4810 c-11 -7 -11 -11 -1 -24 17 -20 27 -20 34 -2 8 19 -15 37
-33 26z"/>
<path d="M3286 4748 c-23 -32 -20 -45 4 -18 19 21 26 40 16 40 -3 0 -12 -10
-20 -22z"/>
<path d="M3505 4680 c-22 -10 -53 -33 -70 -50 -29 -31 -29 -32 -11 -46 20 -14
72 -19 100 -8 9 3 16 17 16 29 0 28 27 39 70 30 22 -5 30 -3 30 7 0 20 -12 32
-43 46 -37 16 -44 15 -92 -8z"/>
<path d="M2340 4616 c0 -9 5 -16 10 -16 6 0 10 4 10 9 0 6 -4 13 -10 16 -5 3
-10 -1 -10 -9z"/>
<path d="M50 4140 c0 -5 5 -10 10 -10 6 0 10 5 10 10 0 6 -4 10 -10 10 -5 0
-10 -4 -10 -10z"/>
<path d="M4079 3889 c-13 -24 -31 -60 -41 -79 -21 -41 -38 -69 -55 -88 -7 -7
-13 -17 -13 -21 0 -4 -9 -19 -21 -32 -14 -16 -17 -25 -8 -28 7 -2 18 4 24 13
7 9 21 16 31 16 26 0 67 70 99 167 29 89 19 120 -16 52z"/>
<path d="M4401 3863 c-1 -7 -7 -13 -15 -13 -16 0 -56 -97 -49 -117 9 -22 23
-14 40 22 11 23 19 31 24 23 12 -20 20 34 10 67 -5 17 -10 24 -10 18z"/>
<path d="M3745 3600 c-16 -7 -17 -9 -3 -9 9 -1 18 -7 21 -13 3 -10 9 -10 30 1
14 8 24 18 21 23 -6 10 -43 9 -69 -2z"/>
<path d="M3600 3590 c0 -5 10 -10 23 -10 18 0 19 2 7 10 -19 13 -30 13 -30 0z"/>
<path d="M3952 3553 c-6 -2 -10 -9 -7 -13 7 -11 35 -2 35 11 0 10 -8 10 -28 2z"/>
<path d="M3615 3521 l-40 -18 50 -5 c28 -4 68 -3 90 1 22 4 57 4 78 0 23 -3
54 -1 75 7 l37 12 -35 6 c-19 3 -75 7 -125 10 -73 4 -98 2 -130 -13z"/>
<path d="M4160 3476 c0 -8 -3 -23 -7 -33 -4 -13 -1 -12 15 6 26 28 28 41 7 41
-8 0 -15 -6 -15 -14z"/>
<path d="M3710 2804 c0 -3 10 -14 22 -24 32 -25 10 -50 -46 -50 -58 0 -74 -13
-39 -30 43 -22 83 -62 83 -84 0 -19 1 -19 20 2 24 25 56 28 84 7 16 -12 17
-18 8 -42 -7 -15 -13 -89 -15 -164 -2 -75 -7 -140 -10 -146 -4 -6 11 -15 35
-21 50 -13 57 -6 57 53 0 22 4 109 10 193 8 105 8 158 1 171 -7 14 -7 28 0 47
16 41 -8 59 -103 78 -89 17 -107 19 -107 10z"/>
<path d="M6 2359 c-10 -53 -7 -449 4 -449 6 0 10 26 10 59 0 33 4 71 10 85 5
14 12 95 16 181 7 151 7 155 -13 155 -15 0 -22 -9 -27 -31z"/>
<path d="M3716 2314 c-8 -20 1 -34 20 -34 15 0 17 9 8 34 -8 20 -20 20 -28 0z"/>
<path d="M2730 2250 c-14 -8 -11 -13 34 -62 14 -16 19 -34 17 -68 -3 -65 20
-74 65 -25 37 41 51 105 22 105 -6 0 -19 6 -27 13 -26 23 -96 46 -111 37z m85
-170 c3 -5 1 -10 -4 -10 -6 0 -11 5 -11 10 0 6 2 10 4 10 3 0 8 -4 11 -10z"/>
<path d="M3112 2241 c4 -13 18 -16 19 -4 0 4 -5 9 -11 12 -7 2 -11 -2 -8 -8z"/>
<path d="M3707 2223 c-3 -5 -8 -22 -11 -39 -8 -34 -34 -62 -81 -88 -29 -15
-29 -16 -8 -22 14 -4 20 -11 16 -22 -5 -12 -1 -14 27 -9 18 4 39 7 46 7 7 0
18 18 24 39 12 44 60 91 93 91 12 0 35 -7 50 -15 24 -12 29 -12 34 0 10 28 -6
43 -57 54 -59 13 -127 14 -133 4z"/>
<path d="M2987 2153 c-11 -10 -8 -51 3 -58 12 -7 33 42 24 56 -6 11 -18 12
-27 2z"/>
<path d="M3847 2054 c-4 -4 -7 -20 -7 -36 0 -19 -5 -28 -16 -28 -9 0 -14 -6
-11 -12 2 -7 10 -13 17 -13 19 0 46 73 33 86 -5 5 -12 6 -16 3z"/>
<path d="M2785 2011 c-3 -2 -5 -14 -5 -26 0 -12 -6 -30 -14 -40 -13 -17 -15
-18 -38 -3 -32 21 -100 31 -154 23 -49 -7 -55 -22 -23 -51 40 -36 49 -67 39
-125 -17 -93 -27 -140 -32 -145 -4 -4 -178 -12 -358 -18 -56 -1 -65 -18 -16
-31 29 -8 34 -13 24 -23 -6 -6 -21 -12 -32 -12 -39 0 -8 -10 61 -20 39 -5 82
-15 96 -21 40 -18 61 -65 59 -137 0 -35 3 -74 7 -85 6 -16 2 -26 -15 -39 -12
-10 -25 -18 -29 -18 -5 0 -13 -7 -20 -16 -9 -13 -16 -14 -31 -6 -23 12 -179 4
-209 -11 -17 -9 -14 -12 27 -24 82 -24 75 -50 -15 -62 -36 -5 -60 -4 -67 3 -7
7 -10 5 -10 -7 0 -9 8 -17 18 -18 9 0 26 -2 37 -3 11 -2 52 -6 91 -10 63 -5
73 -4 94 14 20 17 32 20 65 14 22 -3 43 -8 46 -10 11 -6 45 -76 53 -106 9 -38
-13 -118 -41 -148 -37 -39 -11 -46 42 -11 45 30 48 31 61 14 7 -10 14 -27 15
-38 1 -11 2 -27 3 -35 2 -8 3 -22 4 -31 1 -9 13 -29 27 -45 18 -20 24 -36 20
-53 -5 -19 -3 -23 12 -19 17 4 18 -1 13 -56 -3 -34 -11 -71 -18 -84 -8 -14 -9
-22 -2 -22 20 0 10 -33 -17 -56 -31 -26 -100 -33 -121 -12 -18 18 -15 25 18
31 18 4 30 13 30 22 0 8 9 15 20 15 11 0 20 7 20 15 0 12 -8 14 -42 9 -24 -4
-50 -13 -59 -20 -9 -8 -19 -11 -22 -7 -4 3 -7 -5 -7 -18 0 -23 -3 -25 -60 -25
-34 -1 -64 -5 -68 -8 -4 -4 1 -21 11 -37 18 -32 24 -135 8 -124 -20 12 -21
-16 -2 -53 19 -38 19 -39 0 -112 -11 -40 -22 -77 -25 -82 -3 -4 19 -8 48 -8
60 0 74 10 143 98 22 28 48 51 58 52 10 0 17 8 17 18 0 10 11 29 24 42 14 12
28 37 32 54 9 42 15 51 25 35 6 -10 20 0 53 36 25 27 46 52 46 57 0 4 7 8 15
8 8 0 25 16 37 35 37 57 51 55 122 -19 60 -63 80 -77 88 -57 2 5 24 4 50 -2
39 -9 47 -15 42 -29 -4 -13 0 -18 15 -18 11 0 22 -9 26 -20 4 -12 15 -20 28
-20 31 0 42 -10 55 -48 7 -21 8 -41 2 -57 -7 -20 -6 -25 5 -25 9 0 23 -9 32
-20 10 -11 23 -20 29 -20 6 0 17 -7 24 -15 7 -8 18 -15 24 -14 7 0 6 2 -1 6
-7 2 -13 11 -13 18 0 7 -7 15 -15 19 -8 3 -15 12 -15 21 0 13 7 15 38 10 20
-4 45 -9 55 -12 9 -2 17 0 17 6 0 6 18 11 40 11 22 0 40 -5 40 -11 0 -6 8 -8
19 -4 10 3 26 3 35 -1 21 -8 46 -66 46 -105 l0 -29 231 0 231 0 -3 33 c-5 76
0 95 26 101 14 4 29 14 32 24 4 9 11 20 17 24 5 4 10 22 9 41 -1 33 2 36 46
49 38 13 48 21 57 49 14 40 51 49 47 12 -2 -14 3 -23 11 -23 18 0 33 -42 41
-116 5 -58 4 -63 -20 -82 -14 -11 -25 -25 -25 -31 0 -6 -4 -11 -10 -11 -5 0
-10 -16 -10 -35 l0 -35 110 0 c93 0 109 2 104 15 -7 17 -5 17 69 20 40 1 55
-3 65 -17 7 -10 20 -18 28 -18 14 0 14 2 0 16 -9 8 -16 25 -16 37 0 18 4 16
27 -16 21 -30 32 -37 61 -37 l34 0 -64 60 c-34 33 -66 60 -70 60 -5 0 -8 8 -8
19 0 10 -6 24 -14 30 -8 7 -22 34 -32 61 -10 27 -36 69 -60 94 -52 56 -64 116
-54 261 6 91 13 121 39 180 35 78 56 215 32 215 -5 0 -16 -16 -25 -35 -9 -19
-21 -36 -26 -36 -6 -1 -14 -2 -20 -3 -5 0 -26 -16 -46 -35 -20 -19 -47 -36
-60 -37 -58 -6 -104 -36 -104 -67 0 -21 -45 -40 -75 -33 -21 5 -32 1 -55 -24
-22 -23 -37 -30 -67 -30 -21 0 -55 -9 -74 -19 -43 -23 -61 -13 -49 28 9 34 -2
56 -39 75 -28 15 -111 11 -111 -5 0 -13 -35 -29 -90 -39 -46 -9 -56 -7 -100
16 -26 14 -68 26 -92 28 -23 2 -55 4 -69 4 -18 1 -28 9 -32 23 -5 18 -11 21
-35 16 -33 -7 -102 16 -172 56 -87 50 -90 51 -102 39 -14 -14 10 -39 68 -71
21 -12 57 -33 79 -46 84 -50 97 -56 103 -50 4 4 -1 11 -11 16 -21 12 -22 39
-1 39 22 0 74 -38 74 -55 0 -8 16 -16 39 -20 l39 -6 7 -75 c9 -94 0 -103 -96
-104 -41 0 -72 -5 -85 -15 -10 -8 -31 -15 -46 -15 -15 0 -33 -7 -42 -15 -8 -8
-19 -15 -25 -15 -6 0 -11 -4 -11 -10 0 -5 -7 -10 -15 -10 -24 0 -65 23 -65 36
0 7 -17 16 -37 20 -32 6 -39 4 -59 -21 -20 -26 -25 -28 -48 -17 -14 6 -26 15
-26 20 0 4 -20 30 -45 57 -47 51 -62 83 -51 110 3 8 -8 35 -24 59 -17 24 -30
46 -30 48 0 3 -31 36 -69 75 -37 39 -74 85 -82 102 -8 17 -17 31 -21 31 -11 0
-48 76 -48 100 0 31 46 45 87 26 34 -16 53 -7 28 14 -8 7 -15 20 -15 29 0 9
-9 31 -20 49 -24 38 -28 98 -11 131 10 19 10 32 1 67 -11 39 -11 47 5 63 9 11
34 23 56 26 47 8 49 15 6 35 -45 21 -45 61 1 75 31 9 32 11 32 61 0 79 43 110
87 62 17 -19 19 -35 17 -95 -1 -39 -8 -81 -14 -93 -13 -24 -6 -55 11 -45 18
12 49 95 49 134 0 20 6 45 14 56 7 11 16 32 19 46 6 21 3 26 -11 25 -13 -1
-17 7 -17 39 0 36 3 40 29 45 17 3 29 8 28 13 -1 4 -2 12 -2 17 0 6 -6 10 -14
10 -7 0 -25 11 -40 25 -22 20 -25 28 -17 44 6 11 16 21 22 23 7 2 9 15 5 35
-5 23 -13 31 -27 30 -11 -1 -22 -3 -24 -6z m-281 -697 c21 -20 21 -73 0 -81
-9 -3 -20 0 -25 8 -15 24 -10 89 7 89 1 0 10 -7 18 -16z m1036 -635 c0 -20
-15 -26 -25 -9 -9 15 3 43 15 35 5 -3 10 -15 10 -26z m-75 -379 c3 -5 -1 -10
-9 -10 -9 0 -16 5 -16 10 0 6 4 10 9 10 6 0 13 -4 16 -10z"/>
<path d="M3500 1915 c-8 -9 -8 -15 -2 -15 12 0 26 19 19 26 -2 2 -10 -2 -17
-11z"/>
<path d="M2998 1895 c-9 -19 -9 -28 0 -37 9 -9 12 -5 12 19 0 17 6 34 13 36 9
4 9 6 -1 6 -7 1 -18 -10 -24 -24z"/>
<path d="M3745 1883 c-3 -21 -12 -47 -19 -58 -26 -42 -25 -53 10 -89 43 -44
44 -79 2 -84 -16 -2 -28 1 -28 7 0 6 -10 11 -23 11 -13 0 -29 6 -35 12 -10 10
-19 6 -43 -20 -16 -17 -37 -32 -45 -32 -7 0 -14 -7 -14 -15 0 -9 9 -15 24 -15
13 0 27 -7 30 -16 10 -25 7 -34 -9 -28 -8 4 -15 12 -15 20 0 20 -15 17 -17 -3
-1 -10 -4 -33 -7 -50 -7 -43 13 -53 110 -55 105 -2 113 -11 114 -113 1 -44 1
-86 1 -92 -1 -9 -22 -13 -73 -13 -76 0 -82 -9 -15 -25 87 -21 33 -45 -104 -45
-94 0 -116 -20 -58 -52 27 -16 32 -16 45 -3 19 19 15 18 172 19 l133 1 3 222
c3 225 8 253 42 253 19 0 17 16 -5 48 -18 25 -35 140 -32 214 1 27 0 28 -46
25 -27 -1 -58 2 -69 6 -19 7 -22 3 -29 -30z m-55 -274 c0 -11 -4 -17 -10 -14
-5 3 -10 13 -10 21 0 8 5 14 10 14 6 0 10 -9 10 -21z m94 -34 c3 -8 17 -15 31
-15 22 0 26 -4 23 -22 -2 -19 -9 -23 -36 -21 -35 1 -61 25 -62 56 0 21 35 23
44 2z"/>
<path d="M3564 1859 c-3 -6 -26 -19 -50 -29 -52 -23 -57 -32 -11 -23 33 7 87
40 87 55 0 12 -18 10 -26 -3z"/>
<path d="M3030 1798 c0 -38 12 -68 25 -68 8 0 15 10 17 23 2 18 10 23 41 25
20 2 37 8 37 13 0 6 -6 9 -12 6 -7 -2 -28 2 -47 9 -47 20 -61 17 -61 -8z"/>
<path d="M3083 1602 c-18 -19 -17 -27 13 -78 22 -38 28 -42 45 -34 23 13 25
36 4 44 -8 3 -20 18 -26 33 -8 22 -7 30 7 40 15 11 14 12 -6 10 -13 -1 -29 -8
-37 -15z"/>
<path d="M2095 1550 c-17 -7 -14 -9 13 -9 20 -1 31 3 27 9 -7 12 -13 12 -40 0z"/>
<path d="M3157 1333 c-12 -11 -8 -23 8 -23 8 0 15 7 15 15 0 16 -12 20 -23 8z"/>
<path d="M4120 1231 c0 -20 13 -41 21 -35 15 9 10 44 -6 44 -8 0 -15 -4 -15
-9z"/>
<path d="M4398 1172 c-4 -14 3 -22 29 -31 44 -16 53 -7 23 24 -28 30 -46 32
-52 7z"/>
<path d="M4481 1143 c0 -10 4 -36 8 -58 l8 -40 12 29 c14 35 5 86 -15 86 -8 0
-14 -8 -13 -17z"/>
<path d="M2897 1043 c-16 -4 -15 -7 8 -24 22 -18 28 -19 52 -7 42 21 41 38 -4
37 -21 -1 -46 -3 -56 -6z"/>
<path d="M2686 996 c3 -9 11 -16 16 -16 13 0 5 23 -10 28 -7 2 -10 -2 -6 -12z"/>
<path d="M2720 966 c0 -13 24 -56 32 -56 16 0 8 35 -12 48 -11 7 -20 10 -20 8z"/>
<path d="M2964 943 c3 -19 25 -33 42 -26 19 7 6 30 -21 35 -16 3 -22 0 -21 -9z"/>
<path d="M2785 890 c-8 -13 54 -70 77 -70 9 0 19 -8 21 -17 4 -16 5 -16 6 1 1
18 -41 66 -59 66 -5 0 -15 7 -24 15 -10 10 -17 12 -21 5z"/>
<path d="M2907 770 c6 -22 21 -35 29 -27 7 7 -15 47 -25 47 -5 0 -7 -9 -4 -20z"/>
<path d="M4080 779 c0 -5 5 -7 10 -4 6 3 10 8 10 11 0 2 -4 4 -10 4 -5 0 -10
-5 -10 -11z"/>
<path d="M3075 250 c-3 -6 2 -13 12 -17 10 -3 21 -8 26 -10 4 -2 7 5 7 16 0
22 -33 30 -45 11z"/>
<path d="M3130 206 c0 -16 28 -42 36 -33 8 7 -14 47 -26 47 -6 0 -10 -6 -10
-14z"/>
<path d="M3310 62 c0 -20 85 -71 97 -58 13 13 -12 38 -52 52 -48 16 -45 16
-45 6z"/>
</g>
</svg>
